<svg xmlns="http://www.w3.org/2000/svg" viewBox="0 0 525.54 525.54"><defs><style>.cls-1{fill:#900;fill-rule:evenodd;}.cls-2,.cls-3,.cls-4{fill:none;stroke:#900;stroke-linejoin:round;}.cls-3,.cls-4{stroke-width:24px;}.cls-4{stroke-linecap:round;}</style></defs><g id="Layer_2" data-name="Layer 2"><g id="Layer_1-2" data-name="Layer 1"><path class="cls-1" d="M38.53,277.3l104-104,1.92,210Z"/><path class="cls-2" d="M38.53,277.3l104-104,1.92,210Z"/><path class="cls-1" d="M483.25,242.59,379.4,346.43l-1.89-209.58Z"/><path class="cls-2" d="M483.25,242.59,379.4,346.43l-1.89-209.58Z"/><path class="cls-3" d="M12,262.77h0C12,124.27,124.27,12,262.77,12h0A250.77,250.77,0,0,1,513.54,262.77h0c0,138.5-112.27,250.77-250.77,250.77h0C124.27,513.54,12,401.27,12,262.77Z"/><line class="cls-4" x1="121.28" y1="238.1" x2="263.77" y2="238.1"/><line class="cls-4" x1="296.06" y1="316.31" x2="129.11" y2="315.51"/><line class="cls-4" x1="400.29" y1="277.65" x2="257.85" y2="276.96"/><line class="cls-4" x1="393.65" y1="199.7" x2="226.7" y2="198.9"/></g></g></svg>