<svg xmlns="http://www.w3.org/2000/svg" viewBox="0 0 306.47 131.55"><defs><style>.cls-1,.cls-3,.cls-4{fill:none;stroke-linejoin:round;}.cls-1,.cls-3{stroke:#900;}.cls-1{stroke-width:24px;}.cls-2{fill:#900;fill-rule:evenodd;}.cls-4{stroke:#000;stroke-width:3px;}</style></defs><g id="Layer_2" data-name="Layer 2"><g id="Layer_1-2" data-name="Layer 1"><g id="Layer_2-2" data-name="Layer 2"><g id="Layer_1-2-2" data-name="Layer 1-2"><path class="cls-1" d="M267.21,17.82c-3.11,16.3-10.11,31.3-19.11,45.3a144.34,144.34,0,0,1-38,36c-13,8-26,13-40,17-71,17-147-31-158.24-103.48"/><path class="cls-2" d="M284.59.5,306,85.85l-106.74-64Z"/><path class="cls-3" d="M284.59.5,306,85.85l-106.74-64Z"/><path class="cls-4" d="M112.06,56.4h0a28,28,0,0,1,28-28h0a28,28,0,0,1,28,28h0a28,28,0,0,1-28,28h0A28,28,0,0,1,112.06,56.4Z"/></g></g></g></g></svg>