<svg xmlns="http://www.w3.org/2000/svg" viewBox="0 0 333.31 286.15"><defs><style>.cls-1,.cls-3,.cls-4{fill:none;stroke-linejoin:round;}.cls-1,.cls-3{stroke:#900;}.cls-1{stroke-width:24px;}.cls-2{fill:#900;fill-rule:evenodd;}.cls-4{stroke:#000;stroke-width:3px;}</style></defs><g id="Layer_2" data-name="Layer 2"><g id="Layer_1-2" data-name="Layer 1"><path class="cls-1" d="M294.05,172.42c-3.11,16.3-10.11,31.3-19.11,45.3a144.33,144.33,0,0,1-38,36c-13,8-26,13-40,17-71,17-147-31-158.24-103.48"/><path class="cls-1" d="M39.34,115a125.2,125.2,0,0,1,27-56.2,132.34,132.34,0,0,1,49.91-36.72,130.73,130.73,0,0,1,71.11-8.42,129.12,129.12,0,0,1,67.52,32.19c18.3,16.56,32.17,38.26,38.64,62.16.8,2.93,1.48,5.91,2,8.9"/><path class="cls-2" d="M23.37,129.75.5,43.14,110,106.89Z"/><path class="cls-3" d="M23.37,129.75.5,43.14,110,106.89Z"/><path class="cls-2" d="M311.43,155.1l21.38,85.35-106.74-64Z"/><path class="cls-3" d="M311.43,155.1l21.38,85.35-106.74-64Z"/><path class="cls-2" d="M138.9,75h0a28,28,0,0,1,28-28h0a28,28,0,0,1,28,28h0a28,28,0,0,1-28,28h0A28,28,0,0,1,138.9,75Z"/><path class="cls-4" d="M138.9,75h0a28,28,0,0,1,28-28h0a28,28,0,0,1,28,28h0a28,28,0,0,1-28,28h0A28,28,0,0,1,138.9,75Z"/><path class="cls-4" d="M138.9,211h0a28,28,0,0,1,28-28h0a28,28,0,0,1,28,28h0a28,28,0,0,1-28,28h0A28,28,0,0,1,138.9,211Z"/></g></g></svg>