<svg xmlns="http://www.w3.org/2000/svg" viewBox="0 0 332.64 285.75"><defs><style>.cls-1,.cls-3,.cls-4{fill:none;stroke-linejoin:round;}.cls-1,.cls-3{stroke:#900;}.cls-1{stroke-width:24px;}.cls-2{fill:#900;fill-rule:evenodd;}.cls-4{stroke:#000;stroke-width:3px;}</style></defs><g id="Layer_2" data-name="Layer 2"><g id="Layer_1-2" data-name="Layer 1"><path class="cls-1" d="M295.17,164.49a140,140,0,0,1-13.88,40.94c-3.15,6.09-7.58,11.44-11.62,17a123.15,123.15,0,0,1-11.87,14A125.49,125.49,0,0,1,195,270.75a132.75,132.75,0,0,1-71.68-4.36,134.58,134.58,0,0,1-56.71-38.88c-15.06-17.47-25.53-38.93-29-61.8-.44-2.85-.76-5.72-1-8.6"/><path class="cls-1" d="M39.93,110.45a128.49,128.49,0,0,1,32.63-58.3,133.29,133.29,0,0,1,57.18-35,129.53,129.53,0,0,1,70.19-.62,133.87,133.87,0,0,1,57.62,32.31,130.91,130.91,0,0,1,33.93,56.55c.82,2.75,1.56,5.53,2.2,8.33"/><path class="cls-2" d="M311.07,156.53l21.07,87.09L224,177.6Z"/><path class="cls-3" d="M311.07,156.53l21.07,87.09L224,177.6Z"/><path class="cls-2" d="M21.89,130.53.5,45.18l106.74,64Z"/><path class="cls-3" d="M21.89,130.53.5,45.18l106.74,64Z"/><path class="cls-2" d="M194.41,210.61h0a28,28,0,0,1-28,28h0a28,28,0,0,1-28-28h0a28,28,0,0,1,28-28h0A28,28,0,0,1,194.41,210.61Z"/><path class="cls-4" d="M194.41,210.61h0a28,28,0,0,1-28,28h0a28,28,0,0,1-28-28h0a28,28,0,0,1,28-28h0A28,28,0,0,1,194.41,210.61Z"/><path class="cls-4" d="M194.41,74.61h0a28,28,0,0,1-28,28h0a28,28,0,0,1-28-28h0a28,28,0,0,1,28-28h0A28,28,0,0,1,194.41,74.61Z"/></g></g></svg>