<svg version="1.1" viewBox="0.0 0.0 960.0 720.0" fill="none" stroke="none" stroke-linecap="square" stroke-miterlimit="10" xmlns:xlink="http://www.w3.org/1999/xlink" xmlns="http://www.w3.org/2000/svg"><clipPath id="p.0"><path d="m0 0l960.0 0l0 720.0l-960.0 0l0 -720.0z" clip-rule="nonzero"/></clipPath><g clip-path="url(#p.0)"><path fill="#ffffff" d="m0 0l960.0 0l0 720.0l-960.0 0z" fill-rule="evenodd"/><path fill="#ffffff" d="m99.438156 184.96588l0 0c0 -72.09273 58.442703 -130.53543 130.53543 -130.53543l0 0c34.620163 0 67.82234 13.752804 92.302475 38.232944c24.480164 24.48014 38.23297 57.682343 38.23297 92.30249l0 0c0 72.09271 -58.44272 130.53543 -130.53545 130.53543l0 0c-72.09273 0 -130.53543 -58.44272 -130.53543 -130.53543z" fill-rule="evenodd"/><path stroke="#990000" stroke-width="24.0" stroke-linejoin="round" stroke-linecap="butt" d="m99.438156 184.96588l0 0c0 -72.09273 58.442703 -130.53543 130.53543 -130.53543l0 0c34.620163 0 67.82234 13.752804 92.302475 38.232944c24.480164 24.48014 38.23297 57.682343 38.23297 92.30249l0 0c0 72.09271 -58.44272 130.53543 -130.53545 130.53543l0 0c-72.09273 0 -130.53543 -58.44272 -130.53543 -130.53543z" fill-rule="evenodd"/><path fill="#ffffff" d="m87.43307 160.92126l288.56693 0l0 49.007874l-288.56693 0z" fill-rule="evenodd"/><path stroke="#ffffff" stroke-width="1.0" stroke-linejoin="round" stroke-linecap="butt" d="m87.43307 160.92126l288.56693 0l0 49.007874l-288.56693 0z" fill-rule="evenodd"/><path fill="#990000" d="m86.42117 172.03395l-22.866142 -86.614174l109.48031 63.748024z" fill-rule="evenodd"/><path stroke="#990000" stroke-width="1.0" stroke-linejoin="round" stroke-linecap="butt" d="m86.42117 172.03395l-22.866142 -86.614174l109.48031 63.748024z" fill-rule="evenodd"/><path fill="#990000" d="m374.4803 197.3792l21.385834 85.354324l-106.74014 -63.96849z" fill-rule="evenodd"/><path stroke="#990000" stroke-width="1.0" stroke-linejoin="round" stroke-linecap="butt" d="m374.4803 197.3792l21.385834 85.354324l-106.74014 -63.96849z" fill-rule="evenodd"/><path fill="#990000" d="m201.95801 117.296585l0 0c0 -15.472664 12.543076 -28.015747 28.015747 -28.015747l0 0c7.430237 0 14.556152 2.9516525 19.81012 8.205627c5.2539825 5.2539673 8.205627 12.379883 8.205627 19.81012l0 0c0 15.4726715 -12.543076 28.015747 -28.015747 28.015747l0 0c-15.4726715 0 -28.015747 -12.543076 -28.015747 -28.015747z" fill-rule="evenodd"/><path stroke="#000000" stroke-width="3.0" stroke-linejoin="round" stroke-linecap="butt" d="m201.95801 117.296585l0 0c0 -15.472664 12.543076 -28.015747 28.015747 -28.015747l0 0c7.430237 0 14.556152 2.9516525 19.81012 8.205627c5.2539825 5.2539673 8.205627 12.379883 8.205627 19.81012l0 0c0 15.4726715 -12.543076 28.015747 -28.015747 28.015747l0 0c-15.4726715 0 -28.015747 -12.543076 -28.015747 -28.015747z" fill-rule="evenodd"/><path fill="#ffffff" d="m201.95801 253.29659l0 0c0 -15.4726715 12.543076 -28.015747 28.015747 -28.015747l0 0c7.430237 0 14.556152 2.9516602 19.81012 8.205627c5.2539825 5.2539673 8.205627 12.379883 8.205627 19.81012l0 0c0 15.4726715 -12.543076 28.015762 -28.015747 28.015762l0 0c-15.4726715 0 -28.015747 -12.543091 -28.015747 -28.015762z" fill-rule="evenodd"/><path stroke="#000000" stroke-width="3.0" stroke-linejoin="round" stroke-linecap="butt" d="m201.95801 253.29659l0 0c0 -15.4726715 12.543076 -28.015747 28.015747 -28.015747l0 0c7.430237 0 14.556152 2.9516602 19.81012 8.205627c5.2539825 5.2539673 8.205627 12.379883 8.205627 19.81012l0 0c0 15.4726715 -12.543076 28.015762 -28.015747 28.015762l0 0c-15.4726715 0 -28.015747 -12.543091 -28.015747 -28.015762z" fill-rule="evenodd"/><path fill="#ffffff" d="m862.88995 193.53731l0 0c0 72.09273 -58.442688 130.53545 -130.53546 130.53545l0 0c-34.620117 0 -67.82233 -13.752808 -92.30249 -38.23294c-24.480103 -24.480164 -38.23291 -57.682358 -38.23291 -92.302505l0 0c0 -72.09273 58.442688 -130.53543 130.5354 -130.53543l0 0c72.09277 0 130.53546 58.442703 130.53546 130.53543z" fill-rule="evenodd"/><path stroke="#990000" stroke-width="24.0" stroke-linejoin="round" stroke-linecap="butt" d="m862.88995 193.53731l0 0c0 72.09273 -58.442688 130.53545 -130.53546 130.53545l0 0c-34.620117 0 -67.82233 -13.752808 -92.30249 -38.23294c-24.480103 -24.480164 -38.23291 -57.682358 -38.23291 -92.302505l0 0c0 -72.09273 58.442688 -130.53543 130.5354 -130.53543l0 0c72.09277 0 130.53546 58.442703 130.53546 130.53543z" fill-rule="evenodd"/><path fill="#ffffff" d="m874.895 217.58192l-288.5669 0l0 -49.007874l288.5669 0z" fill-rule="evenodd"/><path stroke="#ffffff" stroke-width="1.0" stroke-linejoin="round" stroke-linecap="butt" d="m874.895 217.58192l-288.5669 0l0 -49.007874l288.5669 0z" fill-rule="evenodd"/><path fill="#990000" d="m877.03107 207.12216l21.070862 87.08661l-108.15747 -66.01575z" fill-rule="evenodd"/><path stroke="#990000" stroke-width="1.0" stroke-linejoin="round" stroke-linecap="butt" d="m877.03107 207.12216l21.070862 87.08661l-108.15747 -66.01575z" fill-rule="evenodd"/><path fill="#990000" d="m587.8478 181.124l-21.385803 -85.35433l106.74017 63.9685z" fill-rule="evenodd"/><path stroke="#990000" stroke-width="1.0" stroke-linejoin="round" stroke-linecap="butt" d="m587.8478 181.124l-21.385803 -85.35433l106.74017 63.9685z" fill-rule="evenodd"/><path fill="#990000" d="m760.3701 261.2066l0 0c0 15.472656 -12.543091 28.015747 -28.015747 28.015747l0 0c-7.430237 0 -14.556152 -2.9516602 -19.81012 -8.205627c-5.2540283 -5.2539673 -8.205627 -12.379883 -8.205627 -19.81012l0 0c0 -15.4726715 12.54303 -28.015747 28.015747 -28.015747l0 0c15.472656 0 28.015747 12.543076 28.015747 28.015747z" fill-rule="evenodd"/><path stroke="#000000" stroke-width="3.0" stroke-linejoin="round" stroke-linecap="butt" d="m760.3701 261.2066l0 0c0 15.472656 -12.543091 28.015747 -28.015747 28.015747l0 0c-7.430237 0 -14.556152 -2.9516602 -19.81012 -8.205627c-5.2540283 -5.2539673 -8.205627 -12.379883 -8.205627 -19.81012l0 0c0 -15.4726715 12.54303 -28.015747 28.015747 -28.015747l0 0c15.472656 0 28.015747 12.543076 28.015747 28.015747z" fill-rule="evenodd"/><path fill="#ffffff" d="m760.3701 125.206604l0 0c0 15.4726715 -12.543091 28.015747 -28.015747 28.015747l0 0c-7.430237 0 -14.556152 -2.9516602 -19.81012 -8.205627c-5.2540283 -5.2539673 -8.205627 -12.379883 -8.205627 -19.81012l0 0c0 -15.4726715 12.54303 -28.015755 28.015747 -28.015755l0 0c15.472656 0 28.015747 12.543083 28.015747 28.015755z" fill-rule="evenodd"/><path stroke="#000000" stroke-width="3.0" stroke-linejoin="round" stroke-linecap="butt" d="m760.3701 125.206604l0 0c0 15.4726715 -12.543091 28.015747 -28.015747 28.015747l0 0c-7.430237 0 -14.556152 -2.9516602 -19.81012 -8.205627c-5.2540283 -5.2539673 -8.205627 -12.379883 -8.205627 -19.81012l0 0c0 -15.4726715 12.54303 -28.015755 28.015747 -28.015755l0 0c15.472656 0 28.015747 12.543083 28.015747 28.015755z" fill-rule="evenodd"/><path fill="#ffffff" d="m614.88995 529.5373l0 0c0 72.09277 -58.442688 130.53546 -130.53543 130.53546l0 0c-34.620148 0 -67.82236 -13.752808 -92.30249 -38.23297c-24.480164 -24.480103 -38.23294 -57.682312 -38.23294 -92.30249l0 0c0 -72.09271 58.442688 -130.53543 130.53543 -130.53543l0 0c72.09274 0 130.53543 58.44272 130.53543 130.53543z" fill-rule="evenodd"/><path stroke="#666666" stroke-width="24.0" stroke-linejoin="round" stroke-linecap="butt" d="m614.88995 529.5373l0 0c0 72.09277 -58.442688 130.53546 -130.53543 130.53546l0 0c-34.620148 0 -67.82236 -13.752808 -92.30249 -38.23297c-24.480164 -24.480103 -38.23294 -57.682312 -38.23294 -92.30249l0 0c0 -72.09271 58.442688 -130.53543 130.53543 -130.53543l0 0c72.09274 0 130.53543 58.44272 130.53543 130.53543z" fill-rule="evenodd"/><path fill="#ffffff" d="m626.895 553.5819l-288.56693 0l0 -49.007843l288.56693 0z" fill-rule="evenodd"/><path stroke="#ffffff" stroke-width="1.0" stroke-linejoin="round" stroke-linecap="butt" d="m626.895 553.5819l-288.56693 0l0 -49.007843l288.56693 0z" fill-rule="evenodd"/><path fill="#666666" d="m629.03107 543.1222l21.070862 87.08661l-108.15747 -66.01575z" fill-rule="evenodd"/><path stroke="#666666" stroke-width="1.0" stroke-linejoin="round" stroke-linecap="butt" d="m629.03107 543.1222l21.070862 87.08661l-108.15747 -66.01575z" fill-rule="evenodd"/><path fill="#666666" d="m339.8478 517.12396l-21.385834 -85.35431l106.74017 63.968506z" fill-rule="evenodd"/><path stroke="#666666" stroke-width="1.0" stroke-linejoin="round" stroke-linecap="butt" d="m339.8478 517.12396l-21.385834 -85.35431l106.74017 63.968506z" fill-rule="evenodd"/></g></svg>