<svg version="1.1" viewBox="0.0 0.0 960.0 720.0" fill="none" stroke="none" stroke-linecap="square" stroke-miterlimit="10" xmlns:xlink="http://www.w3.org/1999/xlink" xmlns="http://www.w3.org/2000/svg"><clipPath id="p.0"><path d="m0 0l960.0 0l0 720.0l-960.0 0l0 -720.0z" clip-rule="nonzero"/></clipPath><g clip-path="url(#p.0)"><path fill="#ffffff" d="m0 0l960.0 0l0 720.0l-960.0 0z" fill-rule="evenodd"/><path fill="#990000" d="m255.75894 351.52014l104.031494 -104.031494l1.9212646 209.98425z" fill-rule="evenodd"/><path stroke="#990000" stroke-width="1.0" stroke-linejoin="round" stroke-linecap="butt" d="m255.75894 351.52014l104.031494 -104.031494l1.9212646 209.98425z" fill-rule="evenodd"/><path fill="#990000" d="m700.4734 316.8007l-103.84247 103.84253l-1.8897705 -209.57481z" fill-rule="evenodd"/><path stroke="#990000" stroke-width="1.0" stroke-linejoin="round" stroke-linecap="butt" d="m700.4734 316.8007l-103.84247 103.84253l-1.8897705 -209.57481z" fill-rule="evenodd"/><path fill="#000000" fill-opacity="0.0" d="m343.23358 313.3294l180.3465 -0.6929321" fill-rule="evenodd"/><path stroke="#990000" stroke-width="24.0" stroke-linejoin="round" stroke-linecap="butt" d="m343.23358 313.3294l180.3465 -0.6929321" fill-rule="evenodd"/><path fill="#000000" fill-opacity="0.0" d="m432.42258 351.52756l186.3937 0.72442627" fill-rule="evenodd"/><path stroke="#990000" stroke-width="24.0" stroke-linejoin="round" stroke-linecap="butt" d="m432.42258 351.52756l186.3937 0.72442627" fill-rule="evenodd"/><path fill="#000000" fill-opacity="0.0" d="m342.66666 391.14172l181.48032 -0.6929016" fill-rule="evenodd"/><path stroke="#990000" stroke-width="24.0" stroke-linejoin="round" stroke-linecap="butt" d="m342.66666 391.14172l181.48032 -0.6929016" fill-rule="evenodd"/><path fill="#000000" fill-opacity="0.0" d="m432.41995 274.43832l188.62991 -0.40945435" fill-rule="evenodd"/><path stroke="#990000" stroke-width="24.0" stroke-linejoin="round" stroke-linecap="butt" d="m432.41995 274.43832l188.62991 -0.40945435" fill-rule="evenodd"/><path fill="#ffffff" d="m397.81104 262.37534l43.398926 0c-4.793701 0 -8.679779 5.3096924 -8.679779 11.859558c0 6.5498657 3.886078 11.859589 8.679779 11.859589l-43.398926 0l0 0c-4.7937317 0 -8.67981 -5.309723 -8.67981 -11.859589c0 -6.5498657 3.886078 -11.859558 8.67981 -11.859558z" fill-rule="evenodd"/><path stroke="#ffffff" stroke-width="1.0" stroke-linejoin="round" stroke-linecap="butt" d="m397.81104 262.37534l43.398926 0c-4.793701 0 -8.679779 5.3096924 -8.679779 11.859558c0 6.5498657 3.886078 11.859589 8.679779 11.859589l-43.398926 0l0 0c-4.7937317 0 -8.67981 -5.309723 -8.67981 -11.859589c0 -6.5498657 3.886078 -11.859558 8.67981 -11.859558z" fill-rule="evenodd"/><path fill="#ffffff" d="m433.04813 340.0315l40.161835 0c-4.436157 0 -8.032349 5.309723 -8.032349 11.859589c0 6.5498657 3.5961914 11.859589 8.032349 11.859589l-40.161835 0l0 0c-4.436157 0 -8.032379 -5.309723 -8.032379 -11.859589c0 -6.5498657 3.596222 -11.859589 8.032379 -11.859589z" fill-rule="evenodd"/><path stroke="#ffffff" stroke-width="1.0" stroke-linejoin="round" stroke-linecap="butt" d="m433.04813 340.0315l40.161835 0c-4.436157 0 -8.032349 5.309723 -8.032349 11.859589c0 6.5498657 3.5961914 11.859589 8.032349 11.859589l-40.161835 0l0 0c-4.436157 0 -8.032379 -5.309723 -8.032379 -11.859589c0 -6.5498657 3.596222 -11.859589 8.032379 -11.859589z" fill-rule="evenodd"/><path fill="#ffffff" d="m527.958 324.98163l-43.398956 0c4.7937317 0 8.679779 -5.309723 8.679779 -11.859589c0 -6.5498657 -3.8860474 -11.859558 -8.679779 -11.859558l43.398956 0l0 0c4.793701 0 8.67981 5.3096924 8.67981 11.859558c0 6.5498657 -3.8861084 11.859589 -8.67981 11.859589z" fill-rule="evenodd"/><path stroke="#ffffff" stroke-width="1.0" stroke-linejoin="round" stroke-linecap="butt" d="m527.958 324.98163l-43.398956 0c4.7937317 0 8.679779 -5.309723 8.679779 -11.859589c0 -6.5498657 -3.8860474 -11.859558 -8.679779 -11.859558l43.398956 0l0 0c4.793701 0 8.67981 5.3096924 8.67981 11.859558c0 6.5498657 -3.8861084 11.859589 -8.67981 11.859589z" fill-rule="evenodd"/><path fill="#ffffff" d="m556.7209 402.51706l-40.161804 0c4.436157 0 8.032349 -5.309723 8.032349 -11.859589c0 -6.5498657 -3.5961914 -11.859558 -8.032349 -11.859558l40.161804 0l0 0c4.436157 0 8.03241 5.3096924 8.03241 11.859558c0 6.5498657 -3.5962524 11.859589 -8.03241 11.859589z" fill-rule="evenodd"/><path stroke="#ffffff" stroke-width="1.0" stroke-linejoin="round" stroke-linecap="butt" d="m556.7209 402.51706l-40.161804 0c4.436157 0 8.032349 -5.309723 8.032349 -11.859589c0 -6.5498657 -3.5961914 -11.859558 -8.032349 -11.859558l40.161804 0l0 0c4.436157 0 8.03241 5.3096924 8.03241 11.859558c0 6.5498657 -3.5962524 11.859589 -8.03241 11.859589z" fill-rule="evenodd"/><path fill="#ffffff" d="m538.32806 297.59595l0 21.165344l-59.55902 -21.165344z" fill-rule="evenodd"/><path stroke="#ffffff" stroke-width="1.0" stroke-linejoin="round" stroke-linecap="butt" d="m538.32806 297.59595l0 21.165344l-59.55902 -21.165344z" fill-rule="evenodd"/><path fill="#ffffff" d="m413.86877 335.1811l0 24.503937l66.897644 -24.503937z" fill-rule="evenodd"/><path stroke="#ffffff" stroke-width="1.0" stroke-linejoin="round" stroke-linecap="butt" d="m413.86877 335.1811l0 24.503937l66.897644 -24.503937z" fill-rule="evenodd"/></g></svg>