<svg version="1.1" viewBox="0.0 0.0 960.0 720.0" fill="none" stroke="none" stroke-linecap="square" stroke-miterlimit="10" xmlns:xlink="http://www.w3.org/1999/xlink" xmlns="http://www.w3.org/2000/svg"><clipPath id="p.0"><path d="m0 0l960.0 0l0 720.0l-960.0 0l0 -720.0z" clip-rule="nonzero"/></clipPath><g clip-path="url(#p.0)"><path fill="#000000" fill-opacity="0.0" d="m0 0l960.0 0l0 720.0l-960.0 0z" fill-rule="evenodd"/><path fill="#ffffff" d="m203.43816 400.96588l0 0c0 -72.09274 58.442703 -130.53543 130.53542 -130.53543l0 0c34.62018 0 67.82236 13.752808 92.30249 38.23294c24.480164 24.480133 38.23297 57.682343 38.23297 92.30249l0 0c0 72.09271 -58.44272 130.53546 -130.53546 130.53546l0 0c-72.09271 0 -130.53542 -58.44275 -130.53542 -130.53546z" fill-rule="evenodd"/><path stroke="#990000" stroke-width="24.0" stroke-linejoin="round" stroke-linecap="butt" d="m203.43816 400.96588l0 0c0 -72.09274 58.442703 -130.53543 130.53542 -130.53543l0 0c34.62018 0 67.82236 13.752808 92.30249 38.23294c24.480164 24.480133 38.23297 57.682343 38.23297 92.30249l0 0c0 72.09271 -58.44272 130.53546 -130.53546 130.53546l0 0c-72.09271 0 -130.53542 -58.44275 -130.53542 -130.53546z" fill-rule="evenodd"/><path fill="#ffffff" d="m191.43307 376.92126l288.56693 0l0 49.007874l-288.56693 0z" fill-rule="evenodd"/><path stroke="#ffffff" stroke-width="1.0" stroke-linejoin="round" stroke-linecap="butt" d="m191.43307 376.92126l288.56693 0l0 49.007874l-288.56693 0z" fill-rule="evenodd"/><path fill="#990000" d="m190.42117 388.03394l-22.86615 -86.61417l109.480316 63.748047z" fill-rule="evenodd"/><path stroke="#cc0000" stroke-width="1.0" stroke-linejoin="round" stroke-linecap="butt" d="m190.42117 388.03394l-22.86615 -86.61417l109.480316 63.748047z" fill-rule="evenodd"/><path fill="#990000" d="m478.4803 413.3792l21.385834 85.35431l-106.74014 -63.968506z" fill-rule="evenodd"/><path stroke="#cc0000" stroke-width="1.0" stroke-linejoin="round" stroke-linecap="butt" d="m478.4803 413.3792l21.385834 85.35431l-106.74014 -63.968506z" fill-rule="evenodd"/><path fill="#990000" d="m305.958 333.2966l0 0c0 -15.472687 12.54306 -28.015747 28.015747 -28.015747l0 0c7.430237 0 14.556152 2.9516296 19.81012 8.205597c5.2539673 5.253998 8.205627 12.379913 8.205627 19.81015l0 0c0 15.472656 -12.543091 28.015747 -28.015747 28.015747l0 0c-15.472687 0 -28.015747 -12.543091 -28.015747 -28.015747z" fill-rule="evenodd"/><path stroke="#000000" stroke-width="3.0" stroke-linejoin="round" stroke-linecap="butt" d="m305.958 333.2966l0 0c0 -15.472687 12.54306 -28.015747 28.015747 -28.015747l0 0c7.430237 0 14.556152 2.9516296 19.81012 8.205597c5.2539673 5.253998 8.205627 12.379913 8.205627 19.81015l0 0c0 15.472656 -12.543091 28.015747 -28.015747 28.015747l0 0c-15.472687 0 -28.015747 -12.543091 -28.015747 -28.015747z" fill-rule="evenodd"/><path fill="#ffffff" d="m305.958 469.2966l0 0c0 -15.472687 12.54306 -28.015747 28.015747 -28.015747l0 0c7.430237 0 14.556152 2.9516296 19.81012 8.205597c5.2539673 5.253998 8.205627 12.379913 8.205627 19.81015l0 0c0 15.472656 -12.543091 28.015747 -28.015747 28.015747l0 0c-15.472687 0 -28.015747 -12.543091 -28.015747 -28.015747z" fill-rule="evenodd"/><path stroke="#000000" stroke-width="3.0" stroke-linejoin="round" stroke-linecap="butt" d="m305.958 469.2966l0 0c0 -15.472687 12.54306 -28.015747 28.015747 -28.015747l0 0c7.430237 0 14.556152 2.9516296 19.81012 8.205597c5.2539673 5.253998 8.205627 12.379913 8.205627 19.81015l0 0c0 15.472656 -12.543091 28.015747 -28.015747 28.015747l0 0c-15.472687 0 -28.015747 -12.543091 -28.015747 -28.015747z" fill-rule="evenodd"/><path fill="#ffffff" d="m822.88995 249.53731l0 0c0 72.09273 -58.442688 130.53545 -130.53546 130.53545l0 0c-34.620117 0 -67.82233 -13.752808 -92.30249 -38.23294c-24.480103 -24.480164 -38.23291 -57.682343 -38.23291 -92.302505l0 0c0 -72.09273 58.442688 -130.53543 130.5354 -130.53543l0 0c72.09277 0 130.53546 58.442703 130.53546 130.53543z" fill-rule="evenodd"/><path stroke="#990000" stroke-width="24.0" stroke-linejoin="round" stroke-linecap="butt" d="m822.88995 249.53731l0 0c0 72.09273 -58.442688 130.53545 -130.53546 130.53545l0 0c-34.620117 0 -67.82233 -13.752808 -92.30249 -38.23294c-24.480103 -24.480164 -38.23291 -57.682343 -38.23291 -92.302505l0 0c0 -72.09273 58.442688 -130.53543 130.5354 -130.53543l0 0c72.09277 0 130.53546 58.442703 130.53546 130.53543z" fill-rule="evenodd"/><path fill="#ffffff" d="m834.895 273.58194l-288.5669 0l0 -49.00789l288.5669 0z" fill-rule="evenodd"/><path stroke="#ffffff" stroke-width="1.0" stroke-linejoin="round" stroke-linecap="butt" d="m834.895 273.58194l-288.5669 0l0 -49.00789l288.5669 0z" fill-rule="evenodd"/><path fill="#990000" d="m837.03107 263.12216l21.070862 87.08661l-108.15747 -66.01575z" fill-rule="evenodd"/><path stroke="#cc0000" stroke-width="1.0" stroke-linejoin="round" stroke-linecap="butt" d="m837.03107 263.12216l21.070862 87.08661l-108.15747 -66.01575z" fill-rule="evenodd"/><path fill="#990000" d="m547.8478 237.124l-21.385803 -85.354324l106.74017 63.96849z" fill-rule="evenodd"/><path stroke="#cc0000" stroke-width="1.0" stroke-linejoin="round" stroke-linecap="butt" d="m547.8478 237.124l-21.385803 -85.354324l106.74017 63.96849z" fill-rule="evenodd"/><path fill="#990000" d="m720.3701 317.2066l0 0c0 15.472656 -12.543091 28.015747 -28.015747 28.015747l0 0c-7.430237 0 -14.556152 -2.9516602 -19.81012 -8.205627c-5.2540283 -5.2539673 -8.205627 -12.379883 -8.205627 -19.81012l0 0c0 -15.472687 12.54303 -28.015747 28.015747 -28.015747l0 0c15.472656 0 28.015747 12.54306 28.015747 28.015747z" fill-rule="evenodd"/><path stroke="#000000" stroke-width="3.0" stroke-linejoin="round" stroke-linecap="butt" d="m720.3701 317.2066l0 0c0 15.472656 -12.543091 28.015747 -28.015747 28.015747l0 0c-7.430237 0 -14.556152 -2.9516602 -19.81012 -8.205627c-5.2540283 -5.2539673 -8.205627 -12.379883 -8.205627 -19.81012l0 0c0 -15.472687 12.54303 -28.015747 28.015747 -28.015747l0 0c15.472656 0 28.015747 12.54306 28.015747 28.015747z" fill-rule="evenodd"/><path fill="#ffffff" d="m720.3701 181.2066l0 0c0 15.4726715 -12.543091 28.015747 -28.015747 28.015747l0 0c-7.430237 0 -14.556152 -2.9516602 -19.81012 -8.205627c-5.2540283 -5.2539673 -8.205627 -12.379883 -8.205627 -19.81012l0 0c0 -15.4726715 12.54303 -28.015747 28.015747 -28.015747l0 0c15.472656 0 28.015747 12.543076 28.015747 28.015747z" fill-rule="evenodd"/><path stroke="#000000" stroke-width="3.0" stroke-linejoin="round" stroke-linecap="butt" d="m720.3701 181.2066l0 0c0 15.4726715 -12.543091 28.015747 -28.015747 28.015747l0 0c-7.430237 0 -14.556152 -2.9516602 -19.81012 -8.205627c-5.2540283 -5.2539673 -8.205627 -12.379883 -8.205627 -19.81012l0 0c0 -15.4726715 12.54303 -28.015747 28.015747 -28.015747l0 0c15.472656 0 28.015747 12.543076 28.015747 28.015747z" fill-rule="evenodd"/></g></svg>