<svg xmlns="http://www.w3.org/2000/svg" viewBox="0 0 304.16 131.05"><defs><style>.cls-1,.cls-3,.cls-4{fill:none;stroke-linejoin:round;}.cls-1,.cls-3{stroke:#900;}.cls-1{stroke-width:24px;}.cls-2{fill:#900;fill-rule:evenodd;}.cls-4{stroke:#000;stroke-width:3px;}</style></defs><g id="Layer_2" data-name="Layer 2"><g id="Layer_1-2" data-name="Layer 1"><g id="Layer_2-2" data-name="Layer 2"><g id="Layer_1-2-2" data-name="Layer 1-2"><path class="cls-1" d="M39.93,110.47A129,129,0,0,1,70.75,54.06a135.06,135.06,0,0,1,54-35.27,128.34,128.34,0,0,1,72.61-2.91,135.13,135.13,0,0,1,57.81,30.78c16.06,14.55,28.08,33.8,34.91,54.31q1.37,4.09,2.47,8.27"/><path class="cls-2" d="M21.89,130.55.5,45.2l106.74,64Z"/><path class="cls-3" d="M21.89,130.55.5,45.2l106.74,64Z"/><path class="cls-4" d="M194.41,74.63h0a28,28,0,0,1-28,28h0a28,28,0,0,1-28-28h0a28,28,0,0,1,28-28h0A28,28,0,0,1,194.41,74.63Z"/></g></g></g></g></svg>