<svg version="1.1" viewBox="0.0 0.0 960.0 720.0" fill="none" stroke="none" stroke-linecap="square" stroke-miterlimit="10" xmlns:xlink="http://www.w3.org/1999/xlink" xmlns="http://www.w3.org/2000/svg"><clipPath id="p.0"><path d="m0 0l960.0 0l0 720.0l-960.0 0l0 -720.0z" clip-rule="nonzero"/></clipPath><g clip-path="url(#p.0)"><path fill="#000000" fill-opacity="0.0" d="m0 0l960.0 0l0 720.0l-960.0 0z" fill-rule="evenodd"/><path fill="#990000" d="m386.11023 455.03836l68.69293 -106.39371l68.69287 106.39371z" fill-rule="evenodd"/><path stroke="#990000" stroke-width="1.0" stroke-linejoin="round" stroke-linecap="butt" d="m386.11023 455.03836l68.69293 -106.39371l68.69287 106.39371z" fill-rule="evenodd"/><path fill="#990000" d="m523.51447 174.30286l-68.69293 106.39371l-68.69293 -106.39371z" fill-rule="evenodd"/><path stroke="#990000" stroke-width="1.0" stroke-linejoin="round" stroke-linecap="butt" d="m523.51447 174.30286l-68.69293 106.39371l-68.69293 -106.39371z" fill-rule="evenodd"/><path fill="#000000" fill-opacity="0.0" d="m454.82153 280.69656l-0.03149414 67.93701" fill-rule="evenodd"/><path stroke="#990000" stroke-width="3.0" stroke-linejoin="round" stroke-linecap="butt" d="m454.82153 280.69656l-0.03149414 67.93701" fill-rule="evenodd"/><path fill="#000000" fill-opacity="0.0" d="m386.1286 174.30286l-0.03149414 280.7244" fill-rule="evenodd"/><path stroke="#990000" stroke-width="3.0" stroke-linejoin="round" stroke-linecap="butt" d="m386.1286 174.30286l-0.03149414 280.7244" fill-rule="evenodd"/><path fill="#000000" fill-opacity="0.0" d="m523.51447 174.30286l-0.031555176 280.7244" fill-rule="evenodd"/><path stroke="#990000" stroke-width="3.0" stroke-linejoin="round" stroke-linecap="butt" d="m523.51447 174.30286l-0.031555176 280.7244" fill-rule="evenodd"/></g></svg>