<svg xmlns="http://www.w3.org/2000/svg" viewBox="0 0 332.64 285.23"><defs><style>.cls-1,.cls-3{fill:none;stroke:#666;stroke-linejoin:round;}.cls-1{stroke-width:24px;}.cls-2{fill:#666;fill-rule:evenodd;}</style></defs><g id="Layer_2" data-name="Layer 2"><g id="Layer_1-2" data-name="Layer 1"><path class="cls-1" d="M294.7,166.66C291,185,284,201,274,217c-2,2-3,4-5,7a138.29,138.29,0,0,1-49,38,132.84,132.84,0,0,1-107,0,133.69,133.69,0,0,1-75.88-101.1"/><path class="cls-1" d="M37.44,122.15A130.55,130.55,0,0,1,292.17,107.6q1.2,4.29,2.09,8.64"/><path class="cls-2" d="M311.07,156.1l21.07,87.09L224,177.17Z"/><path class="cls-3" d="M311.07,156.1l21.07,87.09L224,177.17Z"/><path class="cls-2" d="M21.89,130.11.5,44.75l106.74,64Z"/><path class="cls-3" d="M21.89,130.11.5,44.75l106.74,64Z"/></g></g></svg>